<svg xmlns="http://www.w3.org/2000/svg" version="1.1" xmlns:xlink="http://www.w3.org/1999/xlink" xmlns:svgjs="http://svgjs.dev/svgjs" width="100%" height="100%" viewBox="0 0 1000 600"><rect width="1000" height="600" x="0" y="0" fill="#f9d342"/><g><rect width="333.3333333333333" height="333.3333333333333" rx="13.333333333333334" ry="13.333333333333334" y="151.56004195145522" fill="#292826" transform="matrix(0.966461246461303,0,0,0.966461246461303,0,-7.553797316355059)" x="129.33782958984378"/><path d="M340.5926400953289 393.22671878156257L251.41635379052514 393.22671878156257L251.41635379052514 243.22671377221067L269.47246263068786 243.22671377221067L269.47246263068786 377.52834977342104L340.5926400953289 377.52834977342104L340.5926400953289 393.22671878156257Z " fill="#f9d342" transform="matrix(0.966461246461303,0,0,0.966461246461303,0,-7.553797316355059)"/><path d="M560.7932291837438 243.22671385648388L631.7732776151771 243.22671385648388L631.7732776151771 352.4696738855149Q631.7732776151771 361.7713172723543 628.6042634644558 369.37108268936186Q625.4352493137345 376.9708481063693 619.6253900374122 382.25253835757155Q613.8155307610899 387.5342286087737 605.7756244898154 390.3804727996993Q597.7650609421588 393.2267169906248 588.258018489995 393.2267169906248L588.258018489995 393.2267169906248Q571.3566096861481 393.2267169906248 560.3530883294769 384.48258535252353Q549.3789096964236 375.70911099080445 546.0044964803778 359.86404023719797L546.0044964803778 359.86404023719797L562.9059052842247 356.25488523220986Q563.9622433344651 360.7149792221138 565.7521494751503 364.6175614632799Q567.5420556158355 368.5201437044459 570.6230415957034 371.36638789537153Q573.6746848519535 374.21263208629716 578.1054361182397 375.91451005612896Q582.536187384526 377.61638802596076 588.6688166206441 377.61638802596076L588.6688166206441 377.61638802596076Q600.7286760275557 377.61638802596076 607.3601315651762 370.750190699398Q614.0209298264143 363.8839933728351 614.0209298264143 349.3006597347936L614.0209298264143 349.3006597347936L614.0209298264143 258.66098647944125L560.7932291837438 258.66098647944125L560.7932291837438 243.22671385648388ZM741.8378339055064 390.70324275949497L691.5737483482326 265.84995376579974L690.0772694437253 265.84995376579974L690.0772694437253 390.70324275949497L674.0267996247943 390.70324275949497L674.0267996247943 243.22671385648388L699.1735137652402 243.22671385648388L749.4375993225138 366.8182657346141L750.9340782270211 366.8182657346141L750.9340782270211 243.22671385648388L766.9845480459521 243.22671385648388L766.9845480459521 390.70324275949497L741.8378339055064 390.70324275949497ZM905.3648326274483 258.66098647944125L856.1277423967972 258.66098647944125L856.1277423967972 390.70324275949497L838.4047373316523 390.70324275949497L838.4047373316523 258.66098647944125L789.1676471010012 258.66098647944125L789.1676471010012 243.22671385648388L905.3648326274483 243.22671385648388L905.3648326274483 258.66098647944125Z " fill="#292826" transform="matrix(0.966461246461303,0,0,0.966461246461303,0,-7.553797316355059)"/></g></svg>